<svg width="22" height="20" viewBox="0 0 22 20" fill="none" xmlns="http://www.w3.org/2000/svg">
<path d="M3.13523 0.705078C1.9566 0.705078 0.990234 1.67145 0.990234 2.85008V14.2901C0.990234 15.4687 1.9566 16.4351 3.13523 16.4351H5.28023V17.1501C5.28023 18.3287 6.2466 19.2951 7.42523 19.2951H18.8652C20.0439 19.2951 21.0102 18.3287 21.0102 17.1501V5.71008C21.0102 4.53145 20.0439 3.56508 18.8652 3.56508H16.7202V2.85008C16.7202 1.67145 15.7539 0.705078 14.5752 0.705078H3.13523ZM3.13523 2.13508H14.5752C14.9774 2.13508 15.2902 2.44789 15.2902 2.85008V14.2901C15.2902 14.6923 14.9774 15.0051 14.5752 15.0051H3.13523C2.73305 15.0051 2.42023 14.6923 2.42023 14.2901V2.85008C2.42023 2.44789 2.73305 2.13508 3.13523 2.13508ZM16.7202 4.99508H18.8652C19.2674 4.99508 19.5802 5.30789 19.5802 5.71008V17.1501C19.5802 17.5523 19.2674 17.8651 18.8652 17.8651H7.42523C7.02305 17.8651 6.71023 17.5523 6.71023 17.1501V16.4351H14.5752C15.7539 16.4351 16.7202 15.4687 16.7202 14.2901V4.99508Z" fill="white"/>
</svg>
