<svg width="31" height="25" viewBox="0 0 31 25" fill="none" xmlns="http://www.w3.org/2000/svg">
<path d="M15.5002 19.0084C15.5002 19.0084 12.5638 13.4547 12.0031 12.1803C11.4424 10.906 10.5736 10.4459 9.81671 11.4665C9.05979 12.4872 7.74265 14.9431 7.2938 16.1843C6.84494 17.4255 6.34115 18.9818 7.46206 18.9818C8.58297 18.9818 10.0409 18.2333 10.3215 18.0779C10.6021 17.9226 12.0105 17.0382 8.94107 20.5066C5.87169 23.975 3.24331 25 1.56121 25C-0.120894 25 -0.478016 22.9282 0.657122 18.9818C1.79226 15.0354 5.30363 7.86726 6.98573 5.44456C8.66784 3.02186 9.92905 2.18532 11.2746 2.18532C12.6202 2.18532 13.8113 2.55796 15.5002 5.99157C15.5002 5.99157 18.4367 11.5453 18.9974 12.818C19.5581 14.0908 20.4269 14.5541 21.1833 13.5334C21.9397 12.5128 23.2573 10.0569 23.7062 8.8157C24.1551 7.57447 24.6589 6.01819 23.5379 6.01819C22.417 6.01819 20.9591 6.76673 20.6785 6.92208C20.3979 7.07744 18.9895 7.96178 22.0589 4.49341C25.1283 1.02503 27.7567 0 29.4388 0C31.1209 0 31.478 2.07179 30.3429 6.01819C29.2077 9.96458 25.6964 17.1344 24.0148 19.5554C22.3331 21.9765 21.0714 22.8147 19.7259 22.8147C18.3803 22.8147 17.1892 22.4562 15.5002 19.0084Z" fill="#050505"/>
</svg>
