<svg width="31" height="48" viewBox="0 0 31 48" fill="none" xmlns="http://www.w3.org/2000/svg">
<path d="M16.2842 30.784L16.0922 30.912L13.4042 31.552C11.6549 32.704 10.3109 33.664 9.37222 34.432C8.47622 35.1574 7.64422 36.2027 6.87622 37.568C6.10822 38.8907 5.72422 40.384 5.72422 42.048C6.83355 42.816 7.36688 43.6694 7.32422 44.608C7.32422 46.6134 6.17222 47.616 3.86822 47.616C2.54555 47.36 1.60688 46.7627 1.05222 45.824C0.540218 44.8854 0.348218 43.904 0.476218 42.88C-0.121116 38.6134 1.03088 34.8374 3.93222 31.552C6.87622 28.2667 10.8656 25.9414 15.9002 24.576C16.1136 21.5467 15.8576 16.64 15.1322 9.85603C15.2602 8.70403 15.0896 7.74403 14.6202 6.97603C14.1936 6.20803 13.6389 5.82403 12.9562 5.82403C12.1029 5.82403 11.4202 6.35737 10.9082 7.42403C10.9082 7.50937 10.9509 7.76536 11.0362 8.19203C11.1216 8.6187 11.1642 8.9387 11.1642 9.15203C11.1642 9.3227 11.1429 9.5787 11.1002 9.92003C11.1002 10.2614 11.0362 10.5174 10.9082 10.688C10.7802 10.8587 10.5669 11.008 10.2682 11.136C10.0122 11.264 9.67088 11.328 9.24422 11.328C8.34822 11.328 7.62288 10.9654 7.06822 10.24L6.49222 9.79203C6.27888 9.15203 6.17222 8.2987 6.17222 7.23203C6.17222 5.2267 6.96155 3.5627 8.54022 2.24003C10.1189 0.874698 11.9109 0.192031 13.9162 0.192031C16.3056 0.106699 18.0336 1.10937 19.1002 3.20003C20.1669 5.2907 20.7429 7.7227 20.8282 10.496C21.0416 13.1414 21.2549 16.9814 21.4682 22.016C21.6816 27.0507 21.8736 30.7627 22.0442 33.152C22.0869 33.792 22.3856 35.1147 22.9402 37.12C23.5376 39.1254 24.0922 40.512 24.6042 41.28C25.2016 40.2134 26.1402 39.68 27.4202 39.68C29.1696 39.68 30.0442 40.7467 30.0442 42.88C30.0442 44.16 29.6602 45.2907 28.8922 46.272C28.1669 47.2534 27.1429 47.744 25.8202 47.744C24.6256 47.616 23.5589 47.3174 22.6202 46.848C21.7242 46.3787 20.9562 45.7387 20.3162 44.928C19.6762 44.0747 19.1216 43.1787 18.6522 42.24C18.1829 41.3014 17.7989 40.1707 17.5002 38.848C17.2016 37.5254 16.9669 36.2667 16.7962 35.072C16.6256 33.8347 16.4549 32.4054 16.2842 30.784Z" fill="#F6F6F6"/>
</svg>
