<svg width="45" height="45" viewBox="0 0 45 45" fill="none" xmlns="http://www.w3.org/2000/svg">
<path d="M9.0225 36.576C9.0225 34.016 9.2145 31.5414 9.5985 29.152V29.088L9.7265 28.768V14.112C9.55584 14.1547 9.4065 14.0907 9.2785 13.92C9.19317 13.7494 9.1505 13.4934 9.1505 13.152C7.65717 15.072 6.4625 16.032 5.5665 16.032C4.1585 16.032 3.17717 15.392 2.6225 14.112C1.7265 13.9414 1.10784 13.3654 0.766502 12.384C0.467835 11.36 0.531835 10.3574 0.958502 9.37602C1.38517 8.35202 2.0465 7.73335 2.9425 7.52002L3.1345 7.39202C4.4145 6.28268 5.8225 5.34402 7.3585 4.57602C8.93717 3.80802 10.3025 3.21069 11.4545 2.78402C12.6492 2.35735 14.2705 2.01602 16.3185 1.76002C18.4092 1.46135 19.9238 1.26935 20.8625 1.18402C21.8438 1.09869 23.5932 1.01335 26.1105 0.928018C28.6278 0.842686 30.2492 0.778685 30.9745 0.736017C31.6145 0.736017 32.8732 0.82135 34.7505 0.992017C36.6705 1.16268 38.1212 1.18402 39.1025 1.05602C39.9558 0.501353 40.7238 0.245352 41.4065 0.288019C42.3025 0.288019 43.1132 0.608018 43.8385 1.24802C44.5638 1.84535 44.9265 2.59202 44.9265 3.48802C44.9265 4.38402 44.6918 5.10935 44.2225 5.66402C43.7532 6.17602 43.0705 6.53869 42.1745 6.75202C41.2785 6.92269 40.5958 7.02935 40.1265 7.07202C39.6998 7.11469 39.0812 7.13602 38.2705 7.13602C37.4172 7.13602 36.1798 7.05068 34.5585 6.88002C34.5158 8.54402 34.6652 10.848 35.0065 13.792C35.3905 16.736 35.6038 18.848 35.6465 20.128V26.848C35.6892 31.2854 35.6252 33.504 35.4545 33.504V34.08C35.3265 41.0774 34.1532 44.576 31.9345 44.576C29.5025 44.576 28.2865 42.8054 28.2865 39.264C28.2865 38.496 28.6278 37.728 29.3105 36.96C29.9932 31.4987 29.9078 24.6934 29.0545 16.544C29.0118 15.5627 28.8198 13.984 28.4785 11.808C28.1798 9.58935 28.0092 7.90402 27.9665 6.75202C22.5052 6.83735 18.3665 7.26402 15.5505 8.03202C15.9345 9.61068 16.1265 10.8267 16.1265 11.68C16.1692 12.4907 16.0625 13.6 15.8065 15.008C15.8918 22.9867 15.7212 29.7067 15.2945 35.168C15.8065 35.168 16.7025 35.5094 17.9825 36.192V37.792C17.9825 37.8347 17.9825 37.8987 17.9825 37.984L18.0465 38.112C18.0465 39.3067 17.5558 40.608 16.5745 42.016C15.5932 43.424 14.4625 44.128 13.1825 44.128H12.0945C10.0465 42.2934 9.0225 39.776 9.0225 36.576Z" fill="#F6F6F6"/>
</svg>
