<svg width="42" height="48" viewBox="0 0 42 48" fill="none" xmlns="http://www.w3.org/2000/svg">
<path d="M15.391 44.3601C15.391 43.5921 15.5404 42.9307 15.839 42.3761C16.1804 41.7787 16.479 41.3734 16.735 41.1601C17.0337 40.9467 17.5244 40.6267 18.207 40.2001C18.8044 39.8587 19.103 39.5387 19.103 39.2401C18.975 38.3014 18.719 36.7227 18.335 34.5041C17.9937 32.2427 17.7377 30.3014 17.567 28.6801C17.3964 27.0587 17.311 25.4161 17.311 23.7521C15.4337 23.4534 14.0044 22.9414 13.023 22.2161C11.743 21.0641 10.6764 19.5281 9.82304 17.6081C9.01237 15.6454 8.47904 13.9814 8.22304 12.6161C7.96704 11.2507 7.66837 9.41605 7.32704 7.11206H5.79104V7.24006C4.93771 8.00806 4.04171 8.39206 3.10304 8.39206C2.29237 8.39206 1.63104 8.13605 1.11904 7.62405C0.649706 7.06939 0.415039 6.40806 0.415039 5.64006C0.415039 4.27472 1.07637 3.14406 2.39904 2.24805C3.76437 1.30939 5.08704 0.840054 6.36704 0.840054C7.56171 0.840054 8.56437 1.01072 9.37504 1.35205C10.1857 1.69339 10.847 2.29072 11.359 3.14405C11.871 3.99739 12.2124 4.70139 12.383 5.25605C12.5964 5.81072 12.8737 6.70672 13.215 7.94405C13.4284 8.49872 13.727 9.54405 14.111 11.0801C14.495 12.6161 14.943 13.9387 15.455 15.0481C15.967 16.1147 16.6284 16.8827 17.439 17.3521V7.36806C17.6097 7.06939 17.6524 6.83472 17.567 6.66405C17.4817 6.49339 17.3964 6.40805 17.311 6.40805C17.2257 6.36539 17.055 6.23739 16.799 6.02406C16.543 5.81072 16.3084 5.55472 16.095 5.25605V3.84806C16.095 2.78139 16.4577 1.90672 17.183 1.22406C17.9084 0.498722 18.8257 0.136055 19.935 0.136055C20.2337 0.221387 21.1724 0.178721 22.751 0.00805664C23.775 0.00805664 24.6497 0.264056 25.375 0.776054C26.1004 1.28806 26.463 2.09872 26.463 3.20805C26.463 4.23206 26.207 5.00006 25.695 5.51205C25.2257 5.98139 24.543 6.34406 23.647 6.60006C23.4764 8.90406 23.391 12.6161 23.391 17.7361V17.8641C25.567 17.3947 26.975 15.4107 27.615 11.9121C27.999 10.2054 28.3404 8.86139 28.639 7.88005C28.9377 6.89872 29.4924 5.70405 30.303 4.29605C31.1137 2.84539 32.0737 1.75739 33.183 1.03205C33.567 0.946723 34.335 0.776056 35.487 0.520054C36.6817 0.221388 37.599 0.0507228 38.239 0.00805664C39.135 0.00805664 39.903 0.328056 40.543 0.968056C41.2257 1.56539 41.567 2.29072 41.567 3.14405C41.567 3.61339 41.503 4.04006 41.375 4.42406C41.2897 4.80806 41.0977 5.12806 40.799 5.38406C40.543 5.64006 40.3297 5.85339 40.159 6.02406C39.9884 6.19472 39.647 6.34406 39.135 6.47205C38.623 6.60005 38.2817 6.68539 38.111 6.72805C37.983 6.77072 37.599 6.83472 36.959 6.92006C36.319 7.00539 35.9777 7.04805 35.935 7.04805C34.9537 8.15739 34.2284 9.86406 33.759 12.1681C33.3324 14.4294 32.8844 15.9867 32.415 16.8401C30.9644 20.3814 29.4924 22.2587 27.999 22.4721C26.7617 23.1547 25.2257 23.6454 23.391 23.9441C23.263 25.5227 23.2844 27.0801 23.455 28.6161C23.6257 30.1094 23.967 32.0081 24.479 34.3121C24.991 36.5734 25.311 38.0241 25.439 38.6641L25.887 38.5361C26.911 38.5361 27.7217 38.8347 28.319 39.4321C28.959 39.9867 29.279 40.7974 29.279 41.8641C29.279 42.5894 28.895 43.2934 28.127 43.9761C27.359 44.6587 26.6337 45.0001 25.951 45.0001H21.919C21.5777 45.0001 20.9804 45.4907 20.127 46.4721L19.231 47.3681C18.079 47.3681 17.1404 47.0694 16.415 46.4721C15.7324 45.8747 15.391 45.1707 15.391 44.3601Z" fill="#F6F6F6"/>
</svg>
