<svg width="30" height="44" viewBox="0 0 30 44" fill="none" xmlns="http://www.w3.org/2000/svg">
<path d="M7.38985 25.952C7.43252 24.1173 7.92318 22.5813 8.86185 21.344C9.84319 20.1067 11.2512 18.8053 13.0859 17.44C13.2139 17.312 13.4699 17.12 13.8539 16.864L16.7339 15.2C17.1179 14.944 17.3739 14.752 17.5019 14.624C17.8432 14.368 18.5472 13.7067 19.6139 12.64C20.6805 11.5733 21.3419 10.8693 21.5979 10.528C21.8112 9.41866 21.4059 8.35199 20.3819 7.32799C18.5472 6.77332 17.1819 6.49599 16.2859 6.49599H11.0379C8.09385 7.05066 6.34452 7.32799 5.78985 7.32799H2.97385C2.50452 7.24266 2.14185 7.13599 1.88585 7.00799C1.62985 6.87999 1.39518 6.60266 1.18185 6.17599C0.968518 5.74932 0.861852 5.19466 0.861852 4.51199V4.38399C0.819185 4.29866 0.797852 4.19199 0.797852 4.06399C0.797852 3.93599 0.797852 3.78666 0.797852 3.61599C0.797852 3.44532 0.819185 3.27466 0.861852 3.10399C0.904518 2.93332 0.968518 2.76266 1.05385 2.59199C1.18185 2.37866 1.33118 2.20799 1.50185 2.07999C1.71518 1.90932 1.94985 1.75999 2.20585 1.63199C2.46185 1.50399 2.78185 1.41866 3.16585 1.37599C3.59252 1.29066 4.06185 1.24799 4.57385 1.24799C9.56585 0.650656 12.9152 0.35199 14.6219 0.35199C19.9979 0.35199 24.2005 1.86666 27.2299 4.89599C29.2779 6.64532 29.8112 8.79999 28.8299 11.36C28.8299 11.5733 28.6165 11.9573 28.1899 12.512C27.7632 13.024 27.2299 13.6 26.5899 14.24C25.9925 14.8373 25.3952 15.4347 24.7979 16.032C24.2005 16.5867 23.6459 17.0987 23.1339 17.568L22.3659 18.272C18.2699 21.216 15.9659 23.6267 15.4539 25.504C15.4539 25.76 15.5179 26.1227 15.6459 26.592C15.8165 27.0187 15.9019 27.3387 15.9019 27.552C16.0299 27.68 15.9019 28.0853 15.5179 28.768C15.1339 29.408 14.8565 29.8133 14.6859 29.984C13.4059 30.4107 12.3179 30.5387 11.4219 30.368L10.9099 30.112C10.5685 29.9413 10.2059 29.728 9.82185 29.472C9.48052 29.216 9.11785 28.9173 8.73385 28.576C8.34985 28.2347 8.02985 27.8507 7.77385 27.424C7.51785 26.9547 7.38985 26.464 7.38985 25.952ZM13.4699 34.016H14.6859C16.0085 34.3573 16.9685 34.9973 17.5659 35.936C18.1632 36.8747 18.2912 37.984 17.9499 39.264C17.7792 40.416 17.2885 41.568 16.4779 42.72C15.6672 43.8293 14.7712 44.192 13.7899 43.808C13.1499 43.808 12.5739 43.5733 12.0619 43.104C11.5499 42.592 11.2085 42.1653 11.0379 41.824C10.9099 41.4827 10.6325 40.7787 10.2059 39.712V38.944C10.1205 38.048 10.3979 37.1093 11.0379 36.128C11.6779 35.1467 12.4885 34.4427 13.4699 34.016Z" fill="#F6F6F6"/>
</svg>
