<svg width="35" height="49" viewBox="0 0 35 49" fill="none" xmlns="http://www.w3.org/2000/svg">
<path d="M4.73495 30.4001C4.64962 30.0588 4.56429 29.5468 4.47895 28.8641C3.75362 29.0774 2.94295 29.0988 2.04695 28.9281C1.19362 28.7574 0.574953 28.2241 0.190953 27.3281C0.10562 26.6881 0.10562 26.1548 0.190953 25.7281C0.276286 25.3014 0.48962 24.9601 0.830953 24.7041C1.21495 24.4481 1.53495 24.2774 1.79095 24.1921C2.04695 24.1068 2.47362 23.9788 3.07095 23.8081C3.83895 23.6374 4.24429 23.5094 4.28695 23.4241C4.41495 22.1014 4.64962 20.6934 4.99095 19.2001C5.37495 17.6641 5.67362 16.5548 5.88695 15.8721C6.10029 15.1894 6.54829 13.8454 7.23095 11.8401C7.52962 11.4134 8.06295 10.4748 8.83095 9.0241C9.64162 7.53077 10.431 6.29343 11.199 5.3121C12.0096 4.33077 12.9483 3.62677 14.015 3.2001C15.7643 2.73077 16.8523 2.32543 17.279 1.9841C18.4736 1.13077 19.839 0.704102 21.375 0.704102C23.807 1.2161 25.8976 2.26143 27.647 3.8401C29.439 5.3761 30.783 7.2321 31.679 9.4081C32.575 11.5841 33.215 13.7388 33.599 15.8721C34.0256 18.0054 34.239 20.2028 34.239 22.4641C33.215 27.7548 31.807 32.2774 30.015 36.0321C28.223 39.7868 25.5563 43.0508 22.015 45.8241H22.079C20.287 47.4028 18.751 48.2774 17.471 48.4481C15.7216 48.5761 14.0363 47.9361 12.415 46.5281C10.7936 45.1201 9.47095 43.3281 8.44695 41.1521C7.42295 38.9761 6.59095 36.9708 5.95095 35.1361C5.35362 33.2588 4.94829 31.6801 4.73495 30.4001ZM11.519 14.7201C10.495 17.5788 9.83362 20.2028 9.53495 22.5921C12.1803 21.9094 15.423 21.3974 19.263 21.0561C23.1456 20.6721 26.4736 20.5654 29.247 20.7361C29.631 20.2241 29.4603 18.4748 28.735 15.4881C28.479 13.9521 28.0736 12.4801 27.519 11.0721C27.007 9.62144 26.1963 8.36277 25.087 7.2961C23.9776 6.18677 22.7403 5.8241 21.375 6.2081C21.375 6.76277 21.183 7.27477 20.799 7.7441C20.415 8.17077 19.967 8.3841 19.455 8.3841C19.0283 8.3841 18.6016 8.23477 18.175 7.9361C17.4923 8.10677 17.023 8.61877 16.767 9.4721C16.511 10.3254 16.4043 11.2214 16.447 12.1601C16.4896 13.0988 16.2976 13.9521 15.871 14.7201C15.487 15.4881 14.8256 15.8721 13.887 15.8721C12.6496 15.8721 11.8603 15.4881 11.519 14.7201ZM15.551 42.8161C18.7083 41.6641 21.183 39.7654 22.975 37.1201C24.767 34.4748 26.2816 31.2534 27.519 27.4561L28.031 26.0481C24.1483 25.7494 19.2416 26.0694 13.311 27.0081C13.2256 27.0508 12.543 27.2001 11.263 27.4561C10.4096 27.6268 9.87629 27.9254 9.66295 28.3521C9.49229 28.7361 9.53495 29.3334 9.79095 30.1441C10.047 32.5334 10.623 34.6454 11.519 36.4801C12.4576 38.3148 13.8016 40.4268 15.551 42.8161Z" fill="#F6F6F6"/>
</svg>
