<svg width="40" height="38" viewBox="0 0 40 38" fill="none" xmlns="http://www.w3.org/2000/svg">
<path d="M11.2815 19.5103H15.4124C15.3078 19.1618 15.1858 18.7696 15.0463 18.3337C14.9066 17.8982 14.7585 17.432 14.6019 16.9349C14.445 16.4382 14.2882 15.9415 14.1313 15.4447C13.9744 14.9479 13.8306 14.4686 13.6998 14.0067C13.5692 13.5451 13.4515 13.1224 13.3469 12.7386H13.3207C13.1736 13.4448 12.9904 14.1429 12.7717 14.8303C12.5274 15.6146 12.279 16.4164 12.0266 17.2356C11.7737 18.0551 11.5253 18.8133 11.2815 19.5103Z" fill="white"/>
<path d="M29.4264 18.8647H26.0014C26.0561 18.4621 26.1753 18.0709 26.3544 17.7062C26.5559 17.3142 26.8671 16.9892 27.2502 16.771C27.6332 16.5529 28.0714 16.4508 28.5114 16.4774C28.9789 16.4596 29.4393 16.5958 29.8219 16.865C30.2045 17.1343 30.4881 17.5217 30.6292 17.9677C30.6932 18.162 30.7285 18.3646 30.7338 18.569V18.7259C30.6182 18.7953 30.4887 18.8382 30.3546 18.8516C30.1542 18.8603 29.8448 18.8647 29.4264 18.8647Z" fill="white"/>
<path fill-rule="evenodd" clip-rule="evenodd" d="M32.7953 0H7.62437C3.81266 0 0.722656 3.09 0.722656 6.90171V31.0983C0.722656 34.91 3.81266 38 7.62437 38H32.7953C36.607 38 39.697 34.91 39.697 31.0983V6.90171C39.697 3.09 36.607 0 32.7953 0ZM16.3798 22.735H10.3402L9.11136 26.5596C9.09463 26.6292 9.05414 26.6908 8.99686 26.7337C8.93958 26.7767 8.86911 26.7983 8.79759 26.7949H5.73861C5.56416 26.7949 5.50315 26.699 5.55559 26.5073L10.7847 11.5098L10.7961 11.4756C10.8446 11.3304 10.8931 11.185 10.9415 10.999C11.01 10.6502 11.045 10.2956 11.0461 9.94016C11.0426 9.9153 11.0449 9.88996 11.0528 9.86614C11.0607 9.84231 11.0741 9.82067 11.0919 9.80291C11.1096 9.78515 11.1313 9.77177 11.1551 9.76382C11.1789 9.75587 11.2043 9.75357 11.2291 9.75711H15.3863C15.508 9.75711 15.5777 9.8007 15.5954 9.88787L21.5304 26.5334C21.5826 26.7078 21.5304 26.795 21.3735 26.7949H17.9746C17.9163 26.8013 17.8575 26.7863 17.8094 26.7527C17.7613 26.719 17.7271 26.6689 17.7132 26.6119L16.3798 22.735ZM26.0014 21.2464H31.152C31.3524 21.2464 31.5478 21.2611 31.7381 21.2753C31.9452 21.2908 32.1463 21.3059 32.3417 21.3012C32.7163 21.2925 33.03 21.2751 33.2829 21.249C33.5356 21.2228 33.7142 21.2097 33.8188 21.2097C33.8769 21.2098 33.9329 21.1885 33.9763 21.1499C34.0197 21.1114 34.0474 21.0582 34.0542 21.0006C34.0716 20.8611 34.0934 20.6345 34.1195 20.3208C34.1457 20.0072 34.1588 19.6586 34.1588 19.275C34.1568 18.6005 34.051 17.9302 33.845 17.2879C33.6334 16.6214 33.306 15.9974 32.8776 15.4447C32.4209 14.8802 31.833 14.4361 31.1651 14.1513C30.3708 13.8022 29.5094 13.6326 28.6421 13.6546C27.5963 13.6546 26.6898 13.7889 25.923 14.1636C25.1659 14.5305 24.497 15.0567 23.9621 15.7061C23.4198 16.3632 23.0072 17.1174 22.7463 17.9285C22.4755 18.76 22.3387 19.6293 22.3411 20.5038C22.3409 21.3047 22.4553 22.1015 22.6809 22.87C22.9088 23.6485 23.2912 24.3732 23.8052 25.0008C24.3555 25.6668 25.0539 26.1951 25.8445 26.5434C26.6809 26.9268 27.718 27.1186 28.9558 27.1186C29.7274 27.1306 30.4982 27.0649 31.2566 26.9225C31.8149 26.8312 32.3592 26.669 32.8764 26.4399C32.924 26.41 32.9642 26.3698 32.9941 26.3223C33.0241 26.2615 33.0377 26.1939 33.0333 26.1262V23.6424C33.0333 23.4855 32.9896 23.4422 32.9026 23.5117C32.4363 23.6957 31.9495 23.8226 31.4527 23.8896C30.8973 24.0019 30.3329 24.0639 29.7664 24.0748C29.0523 24.09 28.3433 23.951 27.6878 23.6674C27.2041 23.4636 26.7906 23.1228 26.4982 22.6869C26.2337 22.2468 26.0645 21.756 26.0014 21.2464Z" fill="white"/>
</svg>
