<svg width="40" height="38" viewBox="0 0 40 38" fill="none" xmlns="http://www.w3.org/2000/svg">
<path d="M18.5924 19.4385H14.4659C14.7096 18.7565 14.9533 17.9932 15.1808 17.165C15.3417 16.6623 15.4964 16.1596 15.6487 15.6646C15.7424 15.3601 15.8353 15.0585 15.9281 14.7616C16.1555 14.0633 16.3342 13.365 16.4804 12.6667H16.5129C16.5763 12.884 16.6397 13.1113 16.7059 13.3488C16.7585 13.5373 16.8128 13.7321 16.8704 13.9334C17.0003 14.4043 17.1465 14.8753 17.309 15.3787C17.3902 15.6304 17.4674 15.878 17.5446 16.1257C17.6217 16.3733 17.6989 16.621 17.7801 16.8727C17.9264 17.3599 18.0726 17.8308 18.2188 18.2693C18.365 18.6915 18.495 19.0975 18.5924 19.4385Z" fill="white"/>
<path fill-rule="evenodd" clip-rule="evenodd" d="M32.8078 0H7.62629C3.80845 0 0.72168 3.08547 0.72168 6.90171V31.0983C0.72168 34.9145 3.80845 38 7.62629 38H32.8078C36.6257 38 39.7124 34.9145 39.7124 31.0983V6.90171C39.7124 3.08547 36.6257 0 32.8078 0ZM13.5237 22.7351H19.5672L20.8994 26.6C20.9319 26.7137 21.0456 26.7949 21.1593 26.7787H24.5548C24.7172 26.7787 24.766 26.6975 24.7172 26.5188L18.7874 9.79235C18.7712 9.71115 18.7062 9.66243 18.5762 9.66243H14.3684C14.2872 9.67867 14.2222 9.75987 14.2385 9.84107C14.2385 10.1983 14.206 10.5556 14.141 10.8966C14.095 11.0347 14.0571 11.1646 14.0216 11.2863C14.007 11.3365 13.9927 11.3852 13.9785 11.4325L8.74728 26.4864C8.69854 26.6812 8.74728 26.7787 8.92599 26.7787H11.9803C12.1265 26.7949 12.2564 26.6975 12.2889 26.5513L13.5237 22.7351ZM26.8942 11.9359C27.2841 12.3094 27.804 12.5206 28.3401 12.5043C28.8925 12.5368 29.4449 12.3257 29.8185 11.9359C30.2084 11.53 30.4034 10.9941 30.3871 10.4419C30.4034 9.90602 30.2084 9.38637 29.851 8.99662C29.4936 8.62312 29.0062 8.42825 28.3726 8.42825C27.8365 8.42825 27.3166 8.62312 26.9267 8.99662C26.5368 9.37013 26.3256 9.88979 26.3419 10.4419C26.3256 10.9941 26.5206 11.53 26.8942 11.9359ZM26.5206 14.0958V26.6C26.5206 26.7624 26.6018 26.8599 26.7643 26.8599H29.9485C30.0947 26.8599 30.1597 26.7787 30.1597 26.6V14.0958C30.1597 13.9496 30.0947 13.8684 29.9485 13.8684H26.7318C26.5856 13.8684 26.5206 13.9334 26.5206 14.0958Z" fill="white"/>
</svg>
