<svg width="26" height="38" viewBox="0 0 26 38" fill="none" xmlns="http://www.w3.org/2000/svg">
<g clip-path="url(#clip0_1253_2)">
<path d="M18.4866 0.949719C18.7894 1.33405 18.9438 1.85265 19.2527 2.88986L26 25.5486C23.5053 24.2256 20.7934 23.2715 17.9333 22.7567L13.5401 7.58011C13.4682 7.33178 13.2451 7.16143 12.9918 7.16143C12.7378 7.16143 12.5143 7.33267 12.443 7.58185L8.10304 22.749C5.22967 23.2615 2.50534 24.2174 0 25.5451L6.7804 2.88461C7.0902 1.84919 7.24512 1.33147 7.54799 0.947855C7.81533 0.609183 8.16311 0.346162 8.55812 0.183852C9.00557 0 9.53515 0 10.5943 0H15.4372C16.4978 0 17.0281 0 17.4759 0.184236C17.8713 0.346881 18.2193 0.610436 18.4866 0.949719Z" fill="white"/>
<path d="M19.2939 26.6268C18.1816 27.5992 15.9615 28.2623 13.4042 28.2623C10.2654 28.2623 7.6347 27.2634 6.93661 25.9199C6.68705 26.6899 6.63108 27.5711 6.63108 28.134C6.63108 28.134 6.46665 30.8981 8.34724 32.8206C8.34724 31.8223 9.13889 31.0131 10.1154 31.0131C11.7891 31.0131 11.7872 32.5058 11.7857 33.717C11.7857 33.7532 11.7856 33.7893 11.7856 33.825C11.7856 35.6633 12.8846 37.2391 14.4476 37.9033C14.2141 37.4124 14.0832 36.8612 14.0832 36.2788C14.0832 34.5256 15.09 33.8728 16.2602 33.1141C17.1912 32.5104 18.2257 31.8398 18.9386 30.4944C19.3106 29.7924 19.5218 28.9884 19.5218 28.134C19.5218 27.6085 19.4419 27.1021 19.2939 26.6268Z" fill="white"/>
</g>
<defs>
<clipPath id="clip0_1253_2">
<rect width="26" height="38" fill="white"/>
</clipPath>
</defs>
</svg>
