<svg width="25" height="38" viewBox="0 0 25 38" fill="none" xmlns="http://www.w3.org/2000/svg">
<path d="M0.248047 6.92474C0.248047 3.51345 3.01345 0.748047 6.42474 0.748047H12.6014V13.1014H6.42474C3.01344 13.1014 0.248047 10.336 0.248047 6.92474Z" fill="white"/>
<path d="M0.248047 19.2783C0.248047 15.867 3.01345 13.1016 6.42474 13.1016H12.6014V25.4549H6.42474C3.01344 25.4549 0.248047 22.6895 0.248047 19.2783Z" fill="white"/>
<path d="M0.248047 31.631C0.248047 28.2197 3.01345 25.4543 6.42474 25.4543H12.6014V31.631C12.6014 35.0423 9.83603 37.8077 6.42474 37.8077C3.01345 37.8077 0.248047 35.0423 0.248047 31.631Z" fill="white"/>
<path d="M12.6011 0.747803H18.7778C22.1891 0.747803 24.9545 3.5132 24.9545 6.92449C24.9545 10.3358 22.1891 13.1012 18.7778 13.1012H12.6011V0.747803Z" fill="white"/>
<path d="M12.6011 19.2783C12.6011 15.867 15.3665 13.1016 18.7778 13.1016C22.1891 13.1016 24.9545 15.867 24.9545 19.2783C24.9545 22.6895 22.1891 25.4549 18.7778 25.4549C15.3665 25.4549 12.6011 22.6895 12.6011 19.2783Z" fill="white"/>
</svg>
