<svg width="34" height="46" viewBox="0 0 34 46" fill="none" xmlns="http://www.w3.org/2000/svg">
<path d="M24.3827 28.1117C25.2394 27.5098 26.4284 26.9887 26.4284 26.9887C26.4284 26.9887 23.0452 27.6176 19.6795 27.9051C15.562 28.2555 11.1385 28.3274 8.91797 28.0219C3.66398 27.3032 11.8029 25.3176 11.8029 25.3176C11.8029 25.3176 8.64697 25.102 4.75674 27.0246C0.167146 29.3066 16.1214 30.3488 24.3827 28.1117ZM16.917 25.2278C15.256 21.3915 9.65231 18.0224 16.917 12.1287C25.979 4.77962 21.3317 0 21.3317 0C23.2113 7.5917 14.7227 9.89167 11.6542 14.6084C9.56489 17.8337 12.6771 21.2927 16.917 25.2278ZM26.9354 9.39753C26.9441 9.39753 11.6193 13.3326 18.9364 21.9935C21.0957 24.545 18.3682 26.845 18.3682 26.845C18.3682 26.845 23.8495 23.9341 21.3317 20.2954C18.9801 16.8994 17.1792 15.2103 26.9354 9.39753ZM26.4021 33.6999C26.3544 33.7855 26.2956 33.8641 26.2273 33.9335C37.4434 30.9058 33.3171 23.2513 27.9582 25.1919C27.6688 25.3012 27.4187 25.4986 27.2414 25.7579C27.5543 25.6415 27.8759 25.5513 28.203 25.4883C30.9131 24.9044 34.8033 29.2168 26.4021 33.6999ZM30.5249 39.2971C30.5249 39.2971 31.7925 40.3663 29.1349 41.2018C24.0732 42.774 8.08398 43.2502 3.643 41.2647C2.0432 40.5549 5.04173 39.5577 5.98588 39.351C6.96499 39.1354 7.53323 39.1714 7.53323 39.1714C5.75858 37.8866 -3.94513 41.6959 2.60269 42.783C20.4575 45.7658 35.1582 41.4444 30.5249 39.2971ZM10.9811 35.5777C4.10108 37.5542 15.1686 41.633 23.9281 37.7788C23.0738 37.4377 22.2491 37.0229 21.4629 36.539C17.5552 37.3026 15.7455 37.3565 12.1963 36.9433C9.26766 36.6019 10.9811 35.5777 10.9811 35.5777ZM26.6994 44.3104C19.8193 45.64 11.3308 45.4873 6.30409 44.6338C6.30409 44.6248 7.33566 45.5053 12.6334 45.8556C20.6936 46.3857 33.0723 45.5592 33.3608 41.642C33.3608 41.642 32.8013 43.1244 26.6994 44.3104ZM22.8878 31.7144C17.7125 32.7386 14.714 32.7117 10.9287 32.3074C8.00005 31.9929 9.91457 30.5375 9.91457 30.5375C2.32644 33.125 14.1283 36.0538 24.7324 32.8644C24.047 32.6157 23.4191 32.2242 22.8878 31.7144Z" fill="white"/>
</svg>
