<svg width="39" height="39" viewBox="0 0 39 39" fill="none" xmlns="http://www.w3.org/2000/svg">
<path d="M17.919 0.649386C17.8373 0.656814 17.5773 0.682812 17.3434 0.701382C11.9469 1.18792 6.8921 4.09971 3.69062 8.5751C1.90789 11.0635 0.767687 13.8861 0.336861 16.8759C0.184586 17.9196 0.166016 18.2278 0.166016 19.6429C0.166016 21.0579 0.184586 21.3662 0.336861 22.4098C1.36936 29.5445 6.44642 35.5389 13.3322 37.7599C14.5653 38.1573 15.8652 38.4284 17.3434 38.5918C17.919 38.6549 20.4074 38.6549 20.9831 38.5918C23.5346 38.3095 25.6962 37.6782 27.828 36.59C28.1549 36.4228 28.218 36.3783 28.1734 36.3411C28.1437 36.3188 26.751 34.4507 25.0797 32.1926L22.0416 28.0886L18.2347 22.4544C16.14 19.3569 14.4167 16.8239 14.4019 16.8239C14.387 16.8202 14.3721 19.3235 14.3647 22.3801C14.3536 27.732 14.3499 27.9474 14.283 28.0737C14.1864 28.2557 14.1122 28.33 13.9562 28.4117C13.8373 28.4711 13.7333 28.4822 13.1725 28.4822H12.53L12.3591 28.3745C12.2477 28.304 12.166 28.2111 12.1103 28.1034L12.0323 27.9363L12.0397 20.4897L12.0509 13.0394L12.166 12.8945C12.2254 12.8165 12.3517 12.7162 12.4409 12.668C12.5931 12.5937 12.6525 12.5862 13.2951 12.5862C14.0527 12.5862 14.179 12.616 14.3759 12.8314C14.4316 12.8908 16.4928 15.9957 18.959 19.7357C21.4251 23.4757 24.7974 28.5825 26.4538 31.0895L29.4622 35.6466L29.6145 35.5463C30.9627 34.6698 32.3888 33.4219 33.5179 32.122C35.9209 29.3625 37.4696 25.9976 37.9896 22.4098C38.1419 21.3662 38.1604 21.0579 38.1604 19.6429C38.1604 18.2278 38.1419 17.9196 37.9896 16.8759C36.9571 9.7413 31.88 3.74688 24.9942 1.52589C23.7798 1.13221 22.4873 0.861085 21.0388 0.697668C20.6823 0.660528 18.2273 0.619674 17.919 0.649386ZM25.6962 12.1406C25.8745 12.2297 26.0193 12.4005 26.0713 12.5788C26.101 12.6754 26.1084 14.7404 26.101 19.394L26.0899 26.0718L24.9125 24.2668L23.7315 22.4618V17.6076C23.7315 14.4693 23.7463 12.7051 23.7686 12.6197C23.828 12.4117 23.958 12.2483 24.1363 12.1517C24.2886 12.0737 24.3443 12.0663 24.9274 12.0663C25.4771 12.0663 25.5736 12.0737 25.6962 12.1406Z" fill="white"/>
</svg>
