<svg width="38" height="43" viewBox="0 0 38 43" fill="none" xmlns="http://www.w3.org/2000/svg">
<path d="M17.2855 1.08724C18.3238 0.491147 19.6762 0.488454 20.7136 1.08724C25.9328 4.04512 31.1536 6.99837 36.3719 9.95805C37.3534 10.5126 38.0099 11.6081 37.9999 12.7424V30.5382C38.0072 31.7194 37.2858 32.8412 36.2503 33.3831C31.0483 36.3247 25.849 39.2699 20.6479 42.2115C19.5881 42.8192 18.2085 42.7724 17.1818 42.1148C15.6223 41.208 14.06 40.3057 12.5003 39.3999C12.1816 39.2093 11.8223 39.0576 11.5973 38.7477C11.7962 38.4787 12.1519 38.4452 12.441 38.3278C13.092 38.1202 13.6899 37.7869 14.2879 37.4635C14.4391 37.3597 14.6238 37.3995 14.7687 37.4924C16.1024 38.2593 17.4242 39.0485 18.7623 39.8081C19.0477 39.9734 19.3368 39.7539 19.5808 39.6175C24.6855 36.7238 29.7966 33.841 34.9005 30.9464C35.0896 30.8551 35.1941 30.6538 35.1787 30.446C35.1823 24.5756 35.1796 18.7041 35.1805 12.8337C35.2022 12.5979 35.0662 12.3812 34.8536 12.2847C29.6697 9.35657 24.4884 6.42397 19.3053 3.4951C19.2155 3.43318 19.1091 3.39996 19.0001 3.3998C18.8912 3.39964 18.7847 3.43255 18.6947 3.4942C13.5116 6.42397 8.33125 9.35926 3.14818 12.2872C2.9364 12.3839 2.79427 12.597 2.81948 12.8337C2.82037 18.7041 2.81948 24.5756 2.81948 30.4469C2.81049 30.5483 2.83269 30.65 2.88309 30.7384C2.93348 30.8267 3.00966 30.8974 3.10135 30.941C4.48448 31.7277 5.8694 32.5088 7.25342 33.2928C8.03312 33.7137 8.99045 33.9638 9.8495 33.6413C10.6076 33.3686 11.139 32.5927 11.1245 31.7854C11.1317 25.9492 11.1209 20.1121 11.1299 14.2769C11.1109 14.0178 11.356 13.8037 11.6071 13.8281C12.2717 13.8236 12.9372 13.8191 13.6017 13.8299C13.8791 13.8236 14.07 14.1026 14.0357 14.3636C14.033 20.2367 14.0429 26.11 14.0312 31.9832C14.033 33.5484 13.3919 35.2516 11.9484 36.0175C10.17 36.9414 7.97198 36.7455 6.2151 35.8595C4.69417 35.0981 3.24274 34.1996 1.7488 33.3839C0.710633 32.8449 -0.00717951 31.7187 0.000128365 30.5383V12.7424C-0.0107589 11.5846 0.671856 10.4692 1.68392 9.92275C6.88504 6.97878 12.0853 4.03256 17.2855 1.08724Z" fill="white"/>
<path d="M21.8229 13.4145C24.0914 13.2681 26.5198 13.3277 28.5611 14.4486C30.1415 15.3075 31.0177 17.1101 31.0456 18.8712C31.0015 19.1087 30.7539 19.2398 30.5278 19.2235C29.8697 19.2226 29.2113 19.2324 28.5532 19.219C28.274 19.2297 28.1117 18.9716 28.0767 18.724C27.8876 17.8814 27.4294 17.0469 26.6387 16.6404C25.4248 16.0309 24.0174 16.0615 22.6938 16.0743C21.7275 16.1257 20.6884 16.2096 19.8698 16.7795C19.2413 17.2113 19.0504 18.0827 19.2747 18.7846C19.4862 19.2885 20.0662 19.4511 20.5408 19.601C23.2745 20.3181 26.1714 20.2468 28.853 21.1905C29.9632 21.5752 31.0492 22.3231 31.4292 23.489C31.9263 25.0516 31.7084 26.9193 30.6 28.1737C29.7011 29.206 28.392 29.7678 27.0862 30.073C25.3492 30.4614 23.5466 30.4713 21.7825 30.2988C20.1238 30.1092 18.3976 29.6721 17.1171 28.5385C16.0221 27.5849 15.4873 26.0991 15.5404 24.665C15.5531 24.4229 15.7935 24.254 16.0248 24.2739C16.6876 24.2685 17.3504 24.2667 18.0131 24.2748C18.2779 24.2558 18.4741 24.4852 18.4877 24.7355C18.61 25.5383 18.9108 26.3809 19.6088 26.8569C20.9558 27.7285 22.646 27.6688 24.1885 27.6932C25.4663 27.6364 26.9007 27.6192 27.9435 26.7721C28.4937 26.2889 28.6567 25.4806 28.508 24.7852C28.3469 24.198 27.7346 23.9244 27.2087 23.7455C24.51 22.8893 21.5807 23.2 18.9081 22.2318C17.8231 21.8472 16.7739 21.12 16.3571 20.002C15.7754 18.4197 16.042 16.4626 17.2666 15.2505C18.4606 14.0448 20.1842 13.5807 21.8229 13.4145Z" fill="white"/>
</svg>
