<svg width="40" height="38" viewBox="0 0 40 38" fill="none" xmlns="http://www.w3.org/2000/svg">
<path d="M13.0311 18.3504V12.894C13.1448 12.8778 13.3721 12.8615 13.6969 12.8778C14.0055 12.8615 14.379 12.8615 14.8012 12.8615C15.467 12.8453 16.1166 12.9427 16.7174 13.1863C17.1884 13.365 17.5781 13.6897 17.8542 14.112C18.114 14.5504 18.2439 15.0538 18.2277 15.5573C18.2277 16.2718 18.0653 16.8239 17.7243 17.2299C17.367 17.6359 16.9123 17.9444 16.3926 18.0906C15.7918 18.2855 15.1585 18.3829 14.5251 18.3829H13.6644C13.4835 18.3829 13.2887 18.3689 13.0798 18.3539C13.0636 18.3528 13.0474 18.3516 13.0311 18.3504Z" fill="white"/>
<path fill-rule="evenodd" clip-rule="evenodd" d="M32.7943 0H7.62339C3.80715 0 0.72168 3.08547 0.72168 6.90171V31.0983C0.72168 34.9145 3.80715 38 7.62339 38H32.7943C36.6106 38 39.696 34.9145 39.696 31.0983V6.90171C39.696 3.08547 36.6106 0 32.7943 0ZM9.49094 9.93846V26.6487C9.49094 26.7949 9.5559 26.8598 9.68581 26.8598H12.8362C12.9499 26.8436 13.0311 26.7462 13.0149 26.6325V21.4197C13.3234 21.4197 13.5508 21.4197 13.7132 21.4359C13.8756 21.4521 14.1354 21.4521 14.5251 21.4521C15.8567 21.4521 17.0747 21.306 18.179 20.9C19.2345 20.5103 20.1439 19.8282 20.7935 18.9188C21.4431 18.0094 21.7679 16.8564 21.7679 15.4598C21.7679 14.7291 21.6379 14.0308 21.3944 13.3487C21.1345 12.6504 20.7285 12.0171 20.2089 11.4974C19.5918 10.8966 18.8448 10.4419 18.0328 10.1658C17.1234 9.82478 16.0191 9.66239 14.6875 9.66239C14.2003 9.66239 13.7132 9.66239 13.2097 9.67863C12.9667 9.68647 12.7312 9.69052 12.5033 9.69445C12.2592 9.69865 12.0237 9.70271 11.7969 9.7111C11.5843 9.71898 11.3792 9.72304 11.18 9.72698C10.9685 9.73116 10.7634 9.73522 10.5627 9.74358C10.1892 9.75982 9.9294 9.75982 9.65333 9.75982C9.53966 9.75982 9.49094 9.82478 9.49094 9.93846ZM30.3422 16.8077C30.8944 16.9214 31.414 17.1 31.9012 17.3598C31.9662 17.3923 32.0473 17.3923 32.1935 17.3598C32.2422 17.3273 32.2747 17.2624 32.2747 17.1974V14.5504C32.2747 14.4855 32.2585 14.4205 32.2422 14.3556C32.2097 14.2906 32.1448 14.2256 32.0798 14.2094C31.6414 14.0308 31.1704 13.9008 30.6832 13.8359C30.0174 13.7385 29.3354 13.6897 28.6696 13.6897C27.5166 13.6897 26.5585 13.8684 25.7952 14.2581C25.0969 14.5829 24.4961 15.1026 24.0901 15.7521C23.7328 16.353 23.5379 17.0188 23.5379 17.7171C23.5217 18.2855 23.6516 18.8538 23.9115 19.3735C24.22 19.9256 24.6422 20.3966 25.1456 20.7538C25.8602 21.241 26.6234 21.6308 27.4516 21.9231C28.2473 22.2316 28.7832 22.4752 29.0431 22.6863C29.3029 22.8974 29.4328 23.1085 29.4328 23.3359C29.4328 23.6282 29.2542 23.9043 28.9944 24.0179C28.702 24.1641 28.2636 24.2453 27.6465 24.2453C26.9969 24.2453 26.3473 24.1641 25.7303 24.0017C25.0157 23.8393 24.3499 23.5795 23.7166 23.206C23.6679 23.1735 23.6191 23.1573 23.5704 23.1897C23.5217 23.2222 23.5055 23.2872 23.5055 23.3359V26.1615C23.4892 26.2915 23.5704 26.4051 23.6841 26.4701C24.2038 26.7137 24.7721 26.8923 25.3405 26.9897C26.0713 27.1359 26.802 27.2009 27.5491 27.2009C28.7183 27.2009 29.6926 27.0222 30.4884 26.6812C31.2191 26.3889 31.8525 25.8855 32.3072 25.2359C32.7294 24.6026 32.9567 23.8393 32.9405 23.0761C32.9567 22.4914 32.8268 21.9231 32.567 21.4034C32.2585 20.8513 31.82 20.3966 31.2841 20.0555C30.5046 19.5684 29.6602 19.1624 28.7832 18.8701C28.3935 18.7077 28.0038 18.5291 27.6303 18.3342C27.4191 18.2205 27.2243 18.0744 27.0781 17.8957C26.9807 17.7658 26.9157 17.6197 26.9157 17.4735C26.9157 17.3273 26.9644 17.165 27.0456 17.035C27.1593 16.8726 27.3379 16.759 27.5491 16.7103C27.8576 16.6291 28.1986 16.5803 28.5234 16.5966C29.1405 16.5966 29.7414 16.6778 30.3422 16.8077Z" fill="white"/>
</svg>
