<svg width="44" height="39" viewBox="0 0 44 39" fill="none" xmlns="http://www.w3.org/2000/svg">
<path d="M43.1934 19.6435C43.1934 16.8168 39.6468 14.1379 34.2094 12.4767C35.4642 6.94495 34.9065 2.54394 32.4492 1.13493C31.8828 0.804415 31.2206 0.647858 30.4973 0.647858V2.58743C30.8982 2.58743 31.2206 2.66571 31.4907 2.81357C32.6758 3.49199 33.1899 6.07519 32.7891 9.39769C32.6932 10.2153 32.5364 11.0763 32.3447 11.9548C30.6367 11.5373 28.772 11.2155 26.8114 11.0067C25.635 9.39769 24.4151 7.93648 23.1864 6.65793C26.0271 4.02254 28.6936 2.57873 30.506 2.57873V0.63916C28.1097 0.63916 24.9728 2.3439 21.8009 5.3011C18.6291 2.36129 15.4921 0.673951 13.0958 0.673951V2.61352C14.8996 2.61352 17.5747 4.04864 20.4154 6.66663C19.1955 7.94518 17.9756 9.39769 16.8166 11.0067C14.8473 11.2155 12.9825 11.5373 11.2746 11.9635C11.0742 11.0937 10.9261 10.2501 10.8215 9.44117C10.412 6.11867 10.9174 3.53548 12.0937 2.84836C12.3552 2.6918 12.695 2.62222 13.0958 2.62222V0.682648C12.3639 0.682648 11.7016 0.839206 11.1265 1.16972C8.67792 2.57873 8.12895 6.97104 9.39245 12.4853C3.97246 14.1553 0.443359 16.8255 0.443359 19.6435C0.443359 22.4702 3.98988 25.1491 9.42731 26.8104C8.17252 32.3421 8.7302 36.7431 11.1875 38.1521C11.7539 38.4826 12.4161 38.6392 13.1481 38.6392C15.5444 38.6392 18.6814 36.9344 21.8532 33.9772C25.025 36.917 28.162 38.6044 30.5583 38.6044C31.2903 38.6044 31.9525 38.4478 32.5276 38.1173C34.9762 36.7083 35.5252 32.316 34.2617 26.8017C39.6643 25.1404 43.1934 22.4615 43.1934 19.6435ZM31.848 13.8422C31.5256 14.9642 31.1247 16.121 30.6716 17.2777C30.3143 16.5819 29.9396 15.8861 29.5301 15.1903C29.1293 14.4945 28.7023 13.8161 28.2753 13.1551C29.5127 13.3377 30.7065 13.5639 31.848 13.8422ZM27.857 23.1052C27.1774 24.2794 26.4803 25.3926 25.757 26.4277C24.4586 26.5407 23.1429 26.6016 21.8184 26.6016C20.5026 26.6016 19.1868 26.5407 17.8971 26.4364C17.1739 25.4013 16.4681 24.2967 15.7884 23.1313C15.1261 21.9919 14.5249 20.8351 13.9759 19.6696C14.5162 18.5041 15.1261 17.3386 15.7797 16.1992C16.4594 15.0251 17.1565 13.9118 17.8797 12.8767C19.1781 12.7637 20.4939 12.7028 21.8184 12.7028C23.1341 12.7028 24.4499 12.7637 25.7396 12.868C26.4628 13.9031 27.1686 15.0077 27.8483 16.1731C28.5106 17.3125 29.1118 18.4693 29.6608 19.6348C29.1118 20.8003 28.5106 21.9658 27.857 23.1052ZM30.6716 21.9745C31.1421 23.14 31.543 24.3054 31.8741 25.4361C30.7326 25.7145 29.5301 25.9493 28.284 26.1319C28.711 25.4622 29.138 24.7751 29.5388 24.0706C29.9396 23.3748 30.3143 22.6703 30.6716 21.9745ZM21.8358 31.2549C21.0254 30.4199 20.215 29.4892 19.4133 28.4716C20.1976 28.5064 20.9993 28.5325 21.8096 28.5325C22.6287 28.5325 23.4391 28.5151 24.2321 28.4716C23.4478 29.4892 22.6375 30.4199 21.8358 31.2549ZM15.3527 26.1319C14.1153 25.9493 12.9215 25.7232 11.78 25.4448C12.1025 24.3228 12.5033 23.1661 12.9564 22.0093C13.3137 22.7051 13.6884 23.4009 14.0979 24.0967C14.5075 24.7925 14.9257 25.4709 15.3527 26.1319ZM21.7922 8.03216C22.6026 8.86713 23.413 9.79778 24.2147 10.8154C23.4304 10.7806 22.6287 10.7545 21.8184 10.7545C20.9993 10.7545 20.1889 10.7719 19.3959 10.8154C20.1802 9.79778 20.9905 8.86713 21.7922 8.03216ZM15.344 13.1551C14.917 13.8248 14.49 14.5119 14.0892 15.2164C13.6884 15.9122 13.3137 16.608 12.9564 17.3038C12.4859 16.1384 12.085 14.9729 11.7539 13.8422C12.8954 13.5726 14.0979 13.3377 15.344 13.1551ZM7.45799 24.0445C4.37329 22.7312 2.37783 21.009 2.37783 19.6435C2.37783 18.278 4.37329 16.5471 7.45799 15.2425C8.20738 14.9207 9.02647 14.6337 9.87171 14.364C10.3684 16.0688 11.0219 17.8431 11.8323 19.6609C11.0307 21.47 10.3858 23.2356 9.89786 24.9317C9.03519 24.662 8.21609 24.3663 7.45799 24.0445ZM12.146 36.4734C10.9609 35.795 10.4468 33.2118 10.8477 29.8893C10.9435 29.0717 11.1004 28.2107 11.2921 27.3322C13 27.7497 14.8647 28.0715 16.8253 28.2803C18.0017 29.8893 19.2216 31.3505 20.4503 32.6291C17.6096 35.2645 14.9432 36.7083 13.1307 36.7083C12.7386 36.6996 12.4074 36.6213 12.146 36.4734ZM32.8152 29.8458C33.2248 33.1683 32.7193 35.7515 31.543 36.4387C31.2816 36.5952 30.9417 36.6648 30.5409 36.6648C28.7371 36.6648 26.062 35.2297 23.2213 32.6117C24.4412 31.3331 25.6612 29.8806 26.8201 28.2716C28.7894 28.0628 30.6542 27.741 32.3621 27.3148C32.5625 28.1933 32.7194 29.037 32.8152 29.8458ZM36.17 24.0445C35.4206 24.3663 34.6015 24.6534 33.7563 24.923C33.2596 23.2182 32.6061 21.4439 31.7957 19.6261C32.5974 17.817 33.2422 16.0514 33.7302 14.3553C34.5928 14.625 35.4119 14.9207 36.1787 15.2425C39.2634 16.5558 41.2589 18.278 41.2589 19.6435C41.2502 21.009 39.2547 22.7399 36.17 24.0445Z" fill="white"/>
<path d="M21.8096 23.6183C24.009 23.6183 25.7919 21.8387 25.7919 19.6435C25.7919 17.4483 24.009 15.6687 21.8096 15.6687C19.6103 15.6687 17.8274 17.4483 17.8274 19.6435C17.8274 21.8387 19.6103 23.6183 21.8096 23.6183Z" fill="white"/>
</svg>
