<svg width="46" height="34" viewBox="0 0 46 34" fill="none" xmlns="http://www.w3.org/2000/svg">
<path d="M39.099 19.5238C37.5256 19.5327 36.1632 19.9136 35.0205 20.4807C34.5986 19.639 34.1767 18.9036 34.1065 18.3543C34.0274 17.7164 33.9307 17.3265 34.0274 16.5646C34.124 15.8026 34.5634 14.7217 34.5634 14.6331C34.5546 14.5533 34.4667 14.1635 33.5614 14.1546C32.6561 14.1458 31.8738 14.3318 31.7859 14.571C31.698 14.8103 31.5222 15.3596 31.4079 15.9266C31.2497 16.7594 29.5972 19.7098 28.6567 21.2603C28.349 20.6578 28.0853 20.1262 28.0325 19.7009C27.9535 19.063 27.8567 18.6731 27.9535 17.9112C28.0502 17.1492 28.4897 16.0684 28.4897 15.9798C28.4809 15.9 28.393 15.5102 27.4877 15.5013C26.5823 15.4925 25.8001 15.6785 25.7122 15.9178C25.6243 16.157 25.5276 16.724 25.3342 17.2733C25.1495 17.8226 22.9521 22.7488 22.3807 24.0335C22.0907 24.6891 21.8359 25.2119 21.6512 25.5662C21.4666 25.9206 21.6424 25.5928 21.6248 25.6283C21.4666 25.9295 21.3787 26.0978 21.3787 26.0978V26.1068C21.2556 26.3283 21.1238 26.5408 21.0622 26.5408C21.0182 26.5408 20.9303 25.9472 21.0798 25.1322C21.405 23.4221 22.1961 20.7554 22.1874 20.6579C22.1874 20.6136 22.3367 20.144 21.6775 19.9048C21.0358 19.6656 20.8074 20.0643 20.7545 20.0643C20.7018 20.0643 20.6578 20.2061 20.6578 20.2061C20.6578 20.2061 21.3698 17.2026 19.2954 17.2026C17.9945 17.2026 16.2014 18.6291 15.3136 19.9315C14.7511 20.2416 13.5557 20.8971 12.2899 21.5972C11.8065 21.863 11.3055 22.1465 10.8308 22.4034L10.7342 22.2969C8.22032 19.5946 3.5705 17.6809 3.76388 14.0483C3.8342 12.7282 4.29127 9.2462 12.6944 5.02886C19.5769 1.57347 25.0881 2.52149 26.0461 4.63016C27.4085 7.64255 23.1015 13.242 15.9467 14.0483C13.2218 14.3584 11.789 13.2952 11.4287 12.8965C11.0507 12.4801 10.998 12.4624 10.8574 12.5421C10.6288 12.6661 10.7695 13.0383 10.8574 13.2598C11.0683 13.8179 11.9473 14.8103 13.4416 15.3064C14.7512 15.7406 17.9508 15.9798 21.8183 14.4736C26.1517 12.7813 29.5358 8.08555 28.5425 4.16058C27.5317 0.164742 20.9569 -1.14653 14.7425 1.07732C11.0419 2.40631 7.0337 4.47954 4.15063 7.19955C0.7226 10.4246 0.17763 13.242 0.406166 14.4116C1.20613 18.5846 6.91064 21.3046 9.196 23.3158C9.08173 23.3778 8.97625 23.4398 8.87956 23.493C7.73688 24.06 3.38592 26.3548 2.29598 28.7823C1.0654 31.5289 2.48936 33.5048 3.43866 33.7706C6.37446 34.5945 9.38058 33.1149 11.0067 30.6784C12.6239 28.242 12.4307 25.079 11.6835 23.6348L11.6571 23.5816L12.5536 23.05C13.1338 22.7045 13.7052 22.3855 14.2061 22.1108C13.9249 22.8816 13.7227 23.7942 13.6173 25.1232C13.4942 26.6826 14.1271 28.7026 14.9621 29.5C15.3313 29.8454 15.7708 29.8544 16.0433 29.8544C17.0102 29.8544 17.4496 29.048 17.9331 28.0824C18.5308 26.904 19.0582 25.5396 19.0582 25.5396C19.0582 25.5396 18.3989 29.2342 20.2009 29.2342C20.8601 29.2342 21.5193 28.3748 21.8182 27.9318V27.9406C21.8182 27.9406 21.8358 27.914 21.8709 27.852C21.9078 27.7971 21.943 27.741 21.9764 27.6838V27.6661C22.2401 27.2053 22.829 26.151 23.708 24.4056C24.8418 22.1552 25.9318 19.3377 25.9318 19.3377C25.9318 19.3377 26.0373 20.0288 26.3625 21.1628C26.5558 21.8363 26.9777 22.5716 27.303 23.2892C27.0393 23.6614 26.881 23.8741 26.881 23.8741L26.8898 23.8829C26.679 24.1665 26.4416 24.4678 26.1955 24.7689C25.299 25.8499 24.2266 27.0815 24.086 27.4359C23.919 27.8522 23.9541 28.1623 24.2793 28.4105C24.5167 28.5877 24.9386 28.623 25.3869 28.5877C26.1955 28.5344 26.7581 28.3307 27.0394 28.2066C27.4788 28.0471 27.9799 27.8079 28.4633 27.4535C29.3423 26.798 29.8785 25.8677 29.8257 24.6273C29.7994 23.9451 29.5796 23.2717 29.3071 22.6338C29.3862 22.5186 29.4654 22.4033 29.5445 22.2794C30.9332 20.2326 32.0056 17.9823 32.0056 17.9823C32.0056 17.9823 32.1111 18.6734 32.4363 19.8075C32.6032 20.3833 32.9373 21.0125 33.2362 21.6327C31.9353 22.7047 31.1178 23.9451 30.8366 24.7603C30.318 26.2665 30.7223 26.9487 31.487 27.1081C31.8297 27.179 32.322 27.0196 32.6911 26.8601C33.1482 26.7095 33.702 26.4524 34.2119 26.0715C35.0908 25.4159 35.9347 24.5033 35.8907 23.2718C35.8643 22.7047 35.7149 22.1466 35.5127 21.615C36.6203 21.1543 38.0529 20.8885 39.8725 21.11C43.784 21.5707 44.5575 24.0337 44.4081 25.0615C44.2587 26.0893 43.4413 26.6563 43.1687 26.8335C42.8962 27.0018 42.8083 27.0639 42.8347 27.1879C42.8698 27.374 42.9929 27.3651 43.2302 27.3297C43.5554 27.2765 45.287 26.488 45.3574 24.5921C45.4628 22.1553 43.1687 19.4973 39.099 19.5238ZM8.9323 29.7747C7.6402 31.2012 5.8207 31.7416 5.0472 31.2809C4.21216 30.7936 4.5373 28.6938 6.12835 27.1788C7.09523 26.2573 8.35217 25.4068 9.17842 24.884C9.363 24.7689 9.64428 24.6006 9.97829 24.3967C10.031 24.3614 10.0662 24.3436 10.0662 24.3436C10.1277 24.3081 10.198 24.2638 10.2684 24.2195C10.8573 26.3814 10.2947 28.2774 8.9323 29.7747ZM18.3814 23.2981C17.9331 24.4056 16.9838 27.2496 16.4124 27.0902C15.9201 26.9573 15.6214 24.8043 16.3157 22.6779C16.6673 21.6058 17.4144 20.33 17.8539 19.8338C18.566 19.0364 19.3394 18.7706 19.5328 19.0984C19.7614 19.5238 18.6626 22.607 18.3814 23.2981ZM26.1779 27.0547C25.9846 27.1523 25.8088 27.2231 25.7297 27.17C25.6681 27.1346 25.8087 27.0016 25.8087 27.0016C25.8087 27.0016 26.7844 25.9473 27.1711 25.46C27.3909 25.1766 27.6546 24.8488 27.9358 24.4766V24.5829C27.9359 25.8586 26.7229 26.7092 26.1779 27.0547ZM32.1901 25.6726C32.0495 25.5662 32.0671 25.2384 32.5417 24.2107C32.7264 23.8031 33.1482 23.1209 33.8778 22.4741C33.9656 22.7399 34.0185 22.9968 34.0096 23.2361C34.0009 24.8309 32.8758 25.4245 32.1901 25.6726Z" fill="white"/>
</svg>
