<svg width="98" height="97" viewBox="0 0 98 97" fill="none" xmlns="http://www.w3.org/2000/svg">
<path d="M40.8191 44.5429C40.0575 45.0813 39.0784 45.4043 37.8817 45.4043H31.1364V38.4049H37.4465C38.0993 38.4049 38.6432 38.4049 39.1872 38.5126C39.7312 38.6203 40.1663 38.8356 40.6015 39.051C41.0367 39.374 41.3631 39.6971 41.5807 40.1278C41.7983 40.5586 41.907 41.2047 41.907 41.8508C41.907 43.0353 41.5807 44.0045 40.8191 44.5429Z" fill="white"/>
<path d="M40.0575 57.8957C39.5136 58.0034 38.8608 58.111 38.208 58.111H31.1364V49.8194H38.3168C39.7312 49.8194 40.9279 50.1424 41.7983 50.7885C42.6686 51.5423 43.1038 52.6192 43.1038 54.1267C43.1038 54.8805 42.8862 55.5266 42.6686 56.0651C42.3422 56.6035 42.0158 56.9265 41.5807 57.2496C41.1455 57.5726 40.6015 57.788 40.0575 57.8957Z" fill="white"/>
<path d="M62.6867 45.512C64.101 45.512 65.2978 45.9428 66.0593 46.6966C66.8209 47.4503 67.3649 48.5272 67.5824 50.1424H57.791C57.791 49.7856 57.8656 49.4288 57.9531 49.0107C57.9712 48.9241 57.9899 48.8349 58.0086 48.7425C58.1174 48.2041 58.3349 47.6657 58.7701 47.235C59.2053 46.8042 59.6405 46.3735 60.2932 46.0504C60.946 45.7274 61.7076 45.512 62.6867 45.512Z" fill="white"/>
<path fill-rule="evenodd" clip-rule="evenodd" d="M15.3125 0C6.85564 0 0 6.78568 0 15.1562V81.8438C0 90.2143 6.85564 97 15.3125 97H82.6875C91.1444 97 98 90.2143 98 81.8438V15.1562C98 6.78568 91.1444 0 82.6875 0H15.3125ZM42.6686 33.7745C41.4719 33.4514 40.1663 33.3438 38.752 33.3438H24.5V63.0645H39.0784C40.3839 63.0645 41.6895 62.8491 42.995 62.5261C44.3005 62.203 45.4972 61.6646 46.4764 61.0185C47.4555 60.3724 48.3259 59.4033 48.8699 58.3264C49.4138 57.2496 49.7402 55.9574 49.7402 54.4498C49.7402 52.6192 49.1962 51.0039 48.3259 49.7117C47.4555 48.4195 46.0412 47.4503 44.1917 46.9119C45.4972 46.2658 46.5852 45.4043 47.238 44.4352C47.9995 43.466 48.3259 42.1738 48.3259 40.6663C48.3259 39.3741 48.1083 38.1895 47.6731 37.2204C47.238 36.2512 46.5852 35.4974 45.7148 34.959C44.8445 34.4206 43.8653 33.9899 42.6686 33.7745ZM63.1219 59.2956C61.3812 59.2956 60.0756 58.8648 59.2053 58.0034C58.3349 57.1419 57.6822 55.5266 57.6822 53.8037H73.4573C73.5661 52.0807 73.4573 50.5732 73.2397 49.0656C72.8046 47.558 72.1518 46.1581 71.2814 44.9736C70.4111 43.6814 69.3231 42.8199 67.9088 42.0661C66.4945 41.3124 64.8626 40.9893 63.0131 40.9893C61.2724 40.9893 59.8581 41.3124 58.4437 41.8508C57.1382 42.3892 55.9415 43.2507 54.9623 44.2198C53.9832 45.2967 53.2216 46.4812 52.6777 47.8811C52.1337 49.281 51.9161 50.7885 51.9161 52.4038C51.9161 54.1267 52.1337 55.6343 52.6777 57.0342C53.1128 58.4341 53.8744 59.6186 54.8535 60.5878C55.8327 61.6646 56.9206 62.4184 58.3349 62.9568C59.7493 63.4952 61.2724 63.8183 63.0131 63.8183C65.5154 63.8183 67.5824 63.1722 69.3231 62.0954C71.0639 60.9108 72.3694 59.0802 73.2397 56.4958H67.9088C67.6912 57.1419 67.1473 57.788 66.2769 58.4341C65.4066 58.9725 64.3186 59.2956 63.1219 59.2956ZM68.6704 35.3897H56.4854V38.2972H68.6704V35.3897Z" fill="white"/>
</svg>
