<svg width="98" height="97" viewBox="0 0 98 97" fill="none" xmlns="http://www.w3.org/2000/svg">
<path fill-rule="evenodd" clip-rule="evenodd" d="M0 15.1562C0 6.78568 6.85564 0 15.3125 0H82.6875C91.1444 0 98 6.78568 98 15.1562V81.8438C98 90.2143 91.1444 97 82.6875 97H15.3125C6.85564 97 0 90.2143 0 81.8438V15.1562ZM24.5 49.0078C24.5 35.6592 35.4388 24.832 48.925 24.832C62.4113 24.832 73.3501 35.6592 73.5 49.0078C73.5 59.6867 66.6069 68.7341 56.8669 71.9971C55.6682 72.1455 55.2186 71.4039 55.2186 70.8106V64.1363C55.2186 61.9115 54.4695 60.4283 53.5704 59.6867C58.9649 59.0935 64.659 57.1653 64.659 47.8213C64.659 45.1516 63.6101 42.9268 62.1117 41.2953C62.1235 41.2487 62.1399 41.1902 62.1596 41.1204C62.3889 40.3013 63.0545 37.9243 61.8119 34.9176C61.8119 34.9176 59.7141 34.3244 55.0687 37.439C53.1208 36.9941 51.0229 36.6974 48.925 36.6974C46.8272 36.6974 44.7294 36.8458 42.7814 37.439C38.136 34.3244 36.0382 34.9176 36.0382 34.9176C34.7139 38.1219 35.5571 40.6111 35.7298 41.121L35.7386 41.147C34.0901 42.9268 33.191 45.0033 33.191 47.673C33.191 57.017 38.8854 59.0935 44.2799 59.6867C43.6804 60.28 42.9313 61.3182 42.7814 62.9497C41.4327 63.543 37.9863 64.5812 35.7386 60.8733C35.7386 60.8733 34.3899 58.5002 31.9923 58.3519C31.9923 58.3519 29.5949 58.3519 31.8426 59.8351C31.8426 59.8351 33.4909 60.5767 34.5397 63.3947C34.5397 63.3947 36.0382 68.1409 42.7814 66.6577V70.8106C42.7814 71.4039 42.3318 72.1455 41.1331 71.9971C31.5428 68.7341 24.5 59.6867 24.5 49.0078Z" fill="white"/>
</svg>
