<svg width="97" height="97" viewBox="0 0 97 97" fill="none" xmlns="http://www.w3.org/2000/svg">
<path d="M48.5 56.9875C43.9531 56.9875 40.0125 53.35 40.0125 48.5C40.0125 43.9531 43.65 40.0125 48.5 40.0125C53.0469 40.0125 56.9875 43.65 56.9875 48.5C56.9875 53.0469 53.0469 56.9875 48.5 56.9875Z" fill="white"/>
<path fill-rule="evenodd" clip-rule="evenodd" d="M58.8062 27.8875H38.1938C35.7687 28.1906 34.5563 28.4937 33.6469 28.7969C32.4344 29.1 31.525 29.7062 30.6156 30.6156C29.896 31.3352 29.5561 32.0548 29.1451 32.9245C29.0368 33.1538 28.9233 33.394 28.7969 33.6469C28.75 33.7875 28.6958 33.9355 28.6378 34.094C28.3207 34.9604 27.8875 36.1439 27.8875 38.1937V58.8062C28.1906 61.2312 28.4937 62.4437 28.7969 63.3531C29.1 64.5656 29.7063 65.475 30.6156 66.3844C31.3352 67.1039 32.0548 67.4439 32.9246 67.8549C33.154 67.9633 33.3938 68.0766 33.6469 68.2031C33.7876 68.25 33.9355 68.3042 34.094 68.3622C34.9604 68.6793 36.1439 69.1125 38.1938 69.1125H58.8062C61.2312 68.8094 62.4438 68.5062 63.3531 68.2031C64.5656 67.9 65.475 67.2937 66.3844 66.3844C67.1039 65.6648 67.4439 64.9452 67.8549 64.0755C67.9632 63.8461 68.0766 63.6061 68.2031 63.3531C68.25 63.2124 68.3042 63.0645 68.3622 62.9059C68.6793 62.0396 69.1125 60.8561 69.1125 58.8062V38.1937C68.8094 35.7687 68.5062 34.5562 68.2031 33.6469C67.9 32.4344 67.2937 31.525 66.3844 30.6156C65.6648 29.896 64.9452 29.5561 64.0755 29.1451C63.8464 29.0369 63.6058 28.9232 63.3531 28.7969C63.2124 28.75 63.0645 28.6958 62.906 28.6378C62.0396 28.3207 60.8561 27.8875 58.8062 27.8875ZM48.5 35.4656C41.225 35.4656 35.4656 41.225 35.4656 48.5C35.4656 55.775 41.225 61.5344 48.5 61.5344C55.775 61.5344 61.5344 55.775 61.5344 48.5C61.5344 41.225 55.775 35.4656 48.5 35.4656ZM64.8688 35.1625C64.8688 36.8366 63.5116 38.1937 61.8375 38.1937C60.1634 38.1937 58.8062 36.8366 58.8062 35.1625C58.8062 33.4884 60.1634 32.1312 61.8375 32.1312C63.5116 32.1312 64.8688 33.4884 64.8688 35.1625Z" fill="white"/>
<path fill-rule="evenodd" clip-rule="evenodd" d="M0 15.1562C0 6.78568 6.78568 0 15.1562 0H81.8438C90.2143 0 97 6.78568 97 15.1562V81.8438C97 90.2143 90.2143 97 81.8438 97H15.1562C6.78568 97 0 90.2143 0 81.8438V15.1562ZM38.1938 23.3406H58.8062C61.5344 23.6437 63.3531 23.9469 64.8688 24.5531C66.6875 25.4625 67.9 26.0687 69.4156 27.5844C70.9313 29.1 71.8406 30.6156 72.4469 32.1312C73.0531 33.6469 73.6594 35.4656 73.6594 38.1937V58.8062C73.3562 61.5344 73.0531 63.3531 72.4469 64.8687C71.5375 66.6875 70.9313 67.9 69.4156 69.4156C67.9 70.9312 66.3844 71.8406 64.8688 72.4469C63.3531 73.0531 61.5344 73.6594 58.8062 73.6594H38.1938C35.4656 73.3562 33.6469 73.0531 32.1313 72.4469C30.3125 71.5375 29.1 70.9312 27.5844 69.4156C26.0688 67.9 25.1594 66.3844 24.5531 64.8687C23.9469 63.3531 23.3406 61.5344 23.3406 58.8062V38.1937C23.6437 35.4656 23.9469 33.6469 24.5531 32.1312C25.4625 30.3125 26.0688 29.1 27.5844 27.5844C29.1 26.0687 30.6156 25.1594 32.1313 24.5531C33.6469 23.9469 35.4656 23.3406 38.1938 23.3406Z" fill="white"/>
</svg>
