<svg width="97" height="97" viewBox="0 0 97 97" fill="none" xmlns="http://www.w3.org/2000/svg">
<path fill-rule="evenodd" clip-rule="evenodd" d="M0 15.1562C0 6.78568 6.78568 0 15.1562 0H81.8438C90.2143 0 97 6.78568 97 15.1562V81.8438C97 90.2143 90.2143 97 81.8438 97H15.1562C6.78568 97 0 90.2143 0 81.8438V15.1562ZM24.8562 40.3156V72.75H35.1625V40.3156H24.8562ZM24.25 30.0094C24.25 33.3438 26.675 35.7688 30.0094 35.7688C33.3438 35.7688 35.7688 33.3438 35.7688 30.0094C35.7688 26.675 33.3438 24.25 30.0094 24.25C26.9781 24.25 24.25 26.675 24.25 30.0094ZM62.4438 72.75H72.1438V52.7438C72.1438 42.7406 66.0812 39.4062 60.3219 39.4062C55.1687 39.4062 51.5312 42.7406 50.6219 44.8625V40.3156H40.9219V72.75H51.2281V55.4719C51.2281 50.925 54.2594 48.5 57.2906 48.5C60.3219 48.5 62.4438 50.0156 62.4438 55.1687V72.75Z" fill="white"/>
</svg>
