<svg width="97" height="97" viewBox="0 0 97 97" fill="none" xmlns="http://www.w3.org/2000/svg">
<path fill-rule="evenodd" clip-rule="evenodd" d="M0 15.1562C0 6.78568 6.78568 0 15.1562 0H81.8438C90.2143 0 97 6.78568 97 15.1562V81.8438C97 90.2143 90.2143 97 81.8438 97H15.1562C6.78568 97 0 90.2143 0 81.8438V15.1562ZM66.9906 34.8594C69.1125 34.5562 70.9313 34.2531 72.75 33.3438C71.5375 35.4656 69.7188 37.2844 67.5969 38.4969C68.2031 52.7437 57.8969 68.2031 39.4062 68.2031C33.95 68.2031 28.7969 66.3844 24.25 63.6562C29.4031 64.2625 34.8594 62.7469 38.4969 60.0187C33.95 60.0187 30.3125 56.9875 29.1 53.0469C30.6156 53.35 32.1313 53.0469 33.6469 52.7437C29.1 51.5312 25.7656 47.2875 25.7656 42.7406C27.2812 43.3469 28.7969 43.9531 30.3125 43.9531C26.0688 40.9219 24.5531 35.1625 27.2812 30.6156C32.4344 36.6781 39.7094 40.6187 47.8937 40.9219C46.3781 34.8594 51.2281 28.7969 57.5938 28.7969C60.3219 28.7969 63.05 30.0094 64.8688 31.8281C67.2937 31.2219 69.4156 30.6156 71.2344 29.4031C70.6281 31.8281 69.1125 33.6469 66.9906 34.8594Z" fill="white"/>
</svg>
